<svg xmlns="http://www.w3.org/2000/svg" viewBox="0 0 512 512"><path d="M365.7 0c-40.9 0-73.1 32.2-73.1 73.1 0 26.7 14.9 50.3 36.2 62.9v46.4l-72.4 73.1-73.1-73.1V136c21.2-12.6 36.2-35.4 36.2-62.9 0-40.9-32.2-73.1-73.1-73.1S73.1 32.2 73.1 73.1c0 26.7 14.9 50.3 36.2 62.9v64.5l110.9 110.1v65.3c-21.2 12.6-36.2 35.4-36.2 63 0 40.9 32.2 73.1 73.1 73.1s73.1-32.2 73.1-73.1c0-26.7-14.9-50.3-36.2-62.9v-65.3l108.5-110.1v-65.3c21.2-12.6 36.2-35.4 36.2-62.9.2-40.2-32.1-72.4-73-72.4zM147.1 117.2c-24.4 0-44-20.4-44-44s20.4-44 44-44 44 20.4 44 44-20.4 44-44 44zm109.3 364.9c-24.4 0-44-20.4-44-44s20.4-44 44-44 44 20.4 44 44-20.4 44-44 44zm109.3-364.9c-24.4 0-44-20.4-44-44s20.4-44 44-44 44 20.4 44 44-20.4 44-44 44z" fill="#333"/></svg>