<?xml version="1.0" encoding="utf-8"?>
<!-- Generator: Adobe Illustrator 24.1.1, SVG Export Plug-In . SVG Version: 6.00 Build 0)  -->
<svg version="1.1" id="Layer_1" xmlns="http://www.w3.org/2000/svg" xmlns:xlink="http://www.w3.org/1999/xlink" x="0px" y="0px"
	 viewBox="0 0 512 512" style="enable-background:new 0 0 512 512;" xml:space="preserve">
<style type="text/css">
	.st0{fill:#333333;}
</style>
<g id="XMLID_1_">
	<path id="XMLID_7_" class="st0" d="M365.7,0c-40.9,0-73.1,32.2-73.1,73.1c0,26.7,14.9,50.3,36.2,62.9v46.4l-72.4,73.1l-73.1-73.1
		v-46.4c21.2-12.6,36.2-35.4,36.2-62.9c0-40.9-32.2-73.1-73.1-73.1S73.1,32.2,73.1,73.1c0,26.7,14.9,50.3,36.2,62.9v64.5
		l110.9,110.1v65.3C199,388.5,184,411.3,184,438.9c0,40.9,32.2,73.1,73.1,73.1s73.1-32.2,73.1-73.1c0-26.7-14.9-50.3-36.2-62.9
		v-65.3l108.5-110.1v-65.3c21.2-12.6,36.2-35.4,36.2-62.9C438.9,32.2,406.6,0,365.7,0z M147.1,117.2c-24.4,0-44-20.4-44-44
		s20.4-44,44-44s44,20.4,44,44S170.7,117.2,147.1,117.2z M256.4,482.1c-24.4,0-44-20.4-44-44c0-23.6,20.4-44,44-44s44,20.4,44,44
		C300.4,461.7,280,482.1,256.4,482.1z M365.7,117.2c-24.4,0-44-20.4-44-44s20.4-44,44-44c23.6,0,44,20.4,44,44
		S389.3,117.2,365.7,117.2z"/>
</g>
</svg>
